ModelForces
version=1
nRows=4
nColumns=155
inDegrees=no

This file contains the forces exerted on a model during a simulation.

A force is a generalized force, meaning that it can be either a force (N) or a torque (Nm).

Units are S.I. units (second, meters, Newtons, ...)
Angles are in degrees.

endheader
time	glut_med1_r	glut_med2_r	glut_med3_r	glut_min1_r	glut_min2_r	glut_min3_r	semimem_r	semiten_r	bifemlh_r	bifemsh_r	sar_r	add_long_r	add_brev_r	add_mag1_r	add_mag2_r	add_mag3_r	tfl_r	pect_r	grac_r	glut_max1_r	glut_max2_r	glut_max3_r	iliacus_r	psoas_r	quad_fem_r	gem_r	peri_r	rect_fem_r	vas_med_r	vas_int_r	vas_lat_r	med_gas_r	lat_gas_r	soleus_r	tib_post_r	flex_dig_r	flex_hal_r	tib_ant_r	per_brev_r	per_long_r	per_tert_r	ext_dig_r	ext_hal_r	glut_med1_l	glut_med2_l	glut_med3_l	glut_min1_l	glut_min2_l	glut_min3_l	semimem_l	semiten_l	bifemlh_l	bifemsh_l	sar_l	add_long_l	add_brev_l	add_mag1_l	add_mag2_l	add_mag3_l	tfl_l	pect_l	grac_l	glut_max1_l	glut_max2_l	glut_max3_l	iliacus_l	psoas_l	quad_fem_l	gem_l	peri_l	rect_fem_l	vas_med_l	vas_int_l	vas_lat_l	med_gas_l	lat_gas_l	soleus_l	tib_post_l	flex_dig_l	flex_hal_l	tib_ant_l	per_brev_l	per_long_l	per_tert_l	ext_dig_l	ext_hal_l	ercspn_r	ercspn_l	intobl_r	intobl_l	extobl_r	extobl_l	femur_lat_meniscii_r.femur_lat_r.force.X	femur_lat_meniscii_r.femur_lat_r.force.Y	femur_lat_meniscii_r.femur_lat_r.force.Z	femur_lat_meniscii_r.femur_lat_r.torque.X	femur_lat_meniscii_r.femur_lat_r.torque.Y	femur_lat_meniscii_r.femur_lat_r.torque.Z	femur_lat_meniscii_r.meniscus_lat_r.force.X	femur_lat_meniscii_r.meniscus_lat_r.force.Y	femur_lat_meniscii_r.meniscus_lat_r.force.Z	femur_lat_meniscii_r.meniscus_lat_r.torque.X	femur_lat_meniscii_r.meniscus_lat_r.torque.Y	femur_lat_meniscii_r.meniscus_lat_r.torque.Z	femur_med_meniscii_r.femur_med_r.force.X	femur_med_meniscii_r.femur_med_r.force.Y	femur_med_meniscii_r.femur_med_r.force.Z	femur_med_meniscii_r.femur_med_r.torque.X	femur_med_meniscii_r.femur_med_r.torque.Y	femur_med_meniscii_r.femur_med_r.torque.Z	femur_med_meniscii_r.meniscus_med_r.force.X	femur_med_meniscii_r.meniscus_med_r.force.Y	femur_med_meniscii_r.meniscus_med_r.force.Z	femur_med_meniscii_r.meniscus_med_r.torque.X	femur_med_meniscii_r.meniscus_med_r.torque.Y	femur_med_meniscii_r.meniscus_med_r.torque.Z	femur_med_tibia_r.tibia_upper_r.force.X	femur_med_tibia_r.tibia_upper_r.force.Y	femur_med_tibia_r.tibia_upper_r.force.Z	femur_med_tibia_r.tibia_upper_r.torque.X	femur_med_tibia_r.tibia_upper_r.torque.Y	femur_med_tibia_r.tibia_upper_r.torque.Z	femur_med_tibia_r.femur_med_r.force.X	femur_med_tibia_r.femur_med_r.force.Y	femur_med_tibia_r.femur_med_r.force.Z	femur_med_tibia_r.femur_med_r.torque.X	femur_med_tibia_r.femur_med_r.torque.Y	femur_med_tibia_r.femur_med_r.torque.Z	femur_lat_tibia_r.tibia_upper_r.force.X	femur_lat_tibia_r.tibia_upper_r.force.Y	femur_lat_tibia_r.tibia_upper_r.force.Z	femur_lat_tibia_r.tibia_upper_r.torque.X	femur_lat_tibia_r.tibia_upper_r.torque.Y	femur_lat_tibia_r.tibia_upper_r.torque.Z	femur_lat_tibia_r.femur_lat_r.force.X	femur_lat_tibia_r.femur_lat_r.force.Y	femur_lat_tibia_r.femur_lat_r.force.Z	femur_lat_tibia_r.femur_lat_r.torque.X	femur_lat_tibia_r.femur_lat_r.torque.Y	femur_lat_tibia_r.femur_lat_r.torque.Z	aACL_R	pACL_R	aPCL_R	pPCL_R	aMCL_R	mMCL_R	pMCL_R	aLCL_R	mLCL_R	pLCL_R	aPCL_L	pPCL_L	aMCL_L	aLCL_L
      0.13552851	     12.79935952	      9.60118329	     10.34329327	      4.40810357	      5.08720380	      5.61784450	     97.03553495	    160.42741469	    248.30735073	    385.30361003	    123.18357049	      9.57072540	      6.83320516	      0.00000000	      4.19437895	      7.14256043	      4.53957267	      3.72430715	     95.49856745	      6.20345624	      9.43985775	      7.10861124	     29.86882679	     21.17729300	      6.07899141	      4.03951144	      6.26988832	     40.49481487	     31.83156047	     34.91372051	     48.98806663	      0.00000000	      0.00000000	      0.00000000	      0.00000000	      0.00000000	      0.00000000	     30.17315399	      0.49681918	      0.00000000	     16.51778179	     22.63218232	      6.43210117	     12.79935952	      9.60118329	     10.34329327	      4.40810357	      5.08720380	      5.61784450	      0.00000000	      7.17473111	     13.86835745	     12.10189976	      2.51358917	      9.57072540	      6.83320516	      0.00000000	      4.19437895	      7.14256043	      6.04311593	      3.72430715	      2.60089500	      6.20345624	      9.43985775	      7.10861124	     29.86882679	     21.17729300	      6.07899141	      4.03951144	      6.26988832	     19.87240938	      0.00000000	      0.00000000	      0.00000000	     21.07031997	     10.12325687	     56.12179395	     54.37776092	      6.12824770	      5.46833365	     15.20711428	      8.22985465	     20.16265517	      3.27254307	     10.83348340	      3.44249882	     41.50447886	     41.50447886	     15.58396209	     15.58396209	     32.75741797	     32.75741797	    -10.78312144	     66.70134870	      9.83203794	     -5.60283572	     -0.22709197	     -4.70484334	     10.78312144	    -66.70134870	     -9.83203794	      1.98644196	      0.06917617	      1.80993827	      9.27191397	     22.10090465	     -0.01645105	      0.43811611	     -0.17422326	      3.59104595	     -9.27191397	    -22.10090465	      0.01645105	     -0.37319807	      0.14996310	      0.40523175	    -35.59191251	   -542.67550906	    100.73289019	    -10.49593007	      2.83875737	     11.88019400	     35.59191251	    542.67550906	   -100.73289019	     50.79649389	     -1.02239232	     12.14444148	     42.14963609	   -547.12977540	   -120.87907838	     17.25399259	     -1.67282708	     13.64848470	    -42.14963609	    547.12977540	    120.87907838	    -62.43870613	     -0.50828942	    -19.53176457	     90.67850911	     22.03348027	      0.00000000	      0.00000000	      0.00000000	      0.00000000	      0.00000000	      0.00000000	      0.00000000	      0.00000000	      0.00000000	      0.00000000	      0.00000001	      0.00000000
      0.13599441	     12.78348202	      9.57687278	     10.31681809	      4.39738035	      5.07542698	      5.60317627	     96.33823695	    160.16906467	    246.86843091	    384.04191842	    123.04925766	      9.54622439	      6.81673561	      0.00000000	      4.18375916	      7.12310011	      4.54483388	      3.71519668	     95.33192561	      6.18766595	      9.41577839	      7.09022788	     29.82372960	     21.12586131	      6.06390966	      4.03205638	      6.27814890	     40.64104744	     32.04649999	     34.84817453	     48.89298271	      0.00000000	      0.00000000	      0.00000000	      0.00000000	      0.00000000	      0.00000000	     30.31341710	      0.51322202	      0.00000000	     16.85240985	     22.80476814	      6.48019449	     12.78348202	      9.57687278	     10.31681809	      4.39738035	      5.07542698	      5.60317627	      0.00000000	      7.15554331	     13.84227769	     12.07179633	      2.50750280	      9.54622439	      6.81673561	      0.00000000	      4.18375916	      7.12310011	      6.03126167	      3.71519668	      2.59448860	      6.18766595	      9.41577839	      7.09022788	     29.82372960	     21.12586131	      6.06390966	      4.03205638	      6.27814890	     19.81824631	      0.00000000	      0.00000000	      0.00000000	     21.09513942	     10.12967786	     56.05148787	     54.31840858	      6.11309543	      5.45431099	     15.17341457	      8.20909558	     20.13030443	      3.26463157	     10.79269588	      3.42780883	     41.40329419	     41.40329419	     15.54312528	     15.54312528	     32.72014401	     32.72014401	    -11.10563047	     67.31081661	      9.81718651	     -5.60925571	     -0.23484156	     -4.84736595	     11.10563047	    -67.31081661	     -9.81718651	      1.99923969	      0.07746293	      1.84261300	      9.03766284	     21.61690304	     -0.01743552	      0.43046196	     -0.17184623	      3.49804016	     -9.03766284	    -21.61690304	      0.01743552	     -0.36667495	      0.14832198	      0.39997971	    -34.48126045	   -536.71251451	     99.95383032	    -10.36633178	      2.81438076	     11.82548354	     34.48126045	    536.71251451	    -99.95383032	     50.34745737	     -1.00457941	     11.68479748	     42.87487104	   -546.28709689	   -118.78324571	     17.14423650	     -1.62349149	     13.71864214	    -42.87487104	    546.28709689	    118.78324571	    -61.53148441	     -0.52223235	    -19.87200392	     88.75636691	     20.17028704	      0.00000000	      0.00000000	      0.00000000	      0.00000000	      0.00000000	      0.00000000	      0.00000000	      0.00000000	      0.00000000	      0.00000000	      0.00000001	      0.00000000
      0.13646031	     12.76711585	      9.55271588	     10.29050986	      4.38672424	      5.06372462	      5.58858531	     95.59019774	    159.84105672	    245.34886325	    382.60681109	    122.87959375	      9.52187873	      6.80036882	      0.00000000	      4.17319581	      7.10375898	      4.54790117	      3.70614132	     95.12840960	      6.17197579	      9.39185211	      7.07196148	     29.77892289	     21.07476019	      6.04892095	      4.02464933	      6.28590057	     40.79010025	     31.71478336	     34.79311490	     48.80687819	      0.00000000	      0.00000000	      0.00000000	      0.00000000	      0.00000000	      0.00000000	     30.45453707	      0.52809903	      0.00000000	     17.17879438	     22.97986445	      6.52909628	     12.76711585	      9.55271588	     10.29050986	      4.38672424	      5.06372462	      5.58858531	      0.00000000	      7.13647724	     13.81608252	     12.04188268	      2.50145446	      9.52187873	      6.80036882	      0.00000000	      4.17319581	      7.10375898	      6.01947632	      3.70614132	      2.58812246	      6.17197579	      9.39185211	      7.07196148	     29.77892289	     21.07476019	      6.04892095	      4.02464933	      6.28590057	     19.76436142	      0.00000000	      0.00000000	      0.00000000	     21.11875034	     10.13561905	     55.98032228	     54.25913453	      6.09824748	      5.44062897	     15.13969915	      8.18839578	     20.09790386	      3.25677059	     10.75195840	      3.41319614	     41.30274320	     41.30274320	     15.50254765	     15.50254765	     32.68311153	     32.68311153	    -11.25239239	     67.84130131	      9.82872575	     -5.62528958	     -0.23869480	     -4.91548107	     11.25239239	    -67.84130131	     -9.82872575	      2.01127299	      0.08089305	      1.86718591	      9.05759609	     21.30615661	     -0.10349668	      0.46000018	     -0.17295760	      3.50777297	     -9.05759609	    -21.30615661	      0.10349668	     -0.36404767	      0.15111636	      0.39328167	    -34.28927590	   -532.09577863	     99.47064453	    -10.26437797	      2.80962475	     11.77144180	     34.28927590	    532.09577863	    -99.47064453	     50.04384602	     -1.00334957	     11.60350027	     43.56283534	   -545.72965691	   -117.01489566	     17.05238330	     -1.58155002	     13.79203672	    -43.56283534	    545.72965691	    117.01489566	    -60.76741003	     -0.53482785	    -20.19618158	     86.93120638	     18.42446918	      0.00000000	      0.00000000	      0.00000000	      0.00000000	      0.00000000	      0.00000000	      0.00000000	      0.00000000	      0.00000000	      0.00000000	      0.00000001	      0.00000000
      0.13692621	     12.75028195	      9.52871160	     10.26436756	      4.37613482	      5.05209622	      5.57407176	     94.80372790	    159.46366481	    243.78547987	    381.12290316	    122.69333793	      9.49768740	      6.78410411	      0.00000000	      4.16268920	      7.08453639	      4.54918345	      3.69714099	     94.90466956	      6.15638512	      9.36807791	      7.05381126	     29.73440472	     21.02398746	      6.03402486	      4.01728996	      6.29315635	     40.94240068	     31.92841856	     34.73744278	     48.72661594	      0.00000000	      0.00000000	      0.00000000	      0.00000000	      0.00000000	      0.00000000	     30.59659888	      0.54140643	      0.00000000	     17.34601839	     23.15730563	      6.57878959	     12.75028195	      9.52871160	     10.26436756	      4.37613482	      5.05209622	      5.57407176	      0.00000000	      7.11753210	     13.78977847	     12.01215756	      2.49544391	      9.49768740	      6.78410411	      0.00000000	      4.16268920	      7.08453639	      6.00775961	      3.69714099	      2.58179631	      6.15638512	      9.36807791	      7.05381126	     29.73440472	     21.02398746	      6.03402486	      4.01728996	      6.29315635	     19.71075463	      0.00000000	      0.00000000	      0.00000000	     21.14117677	     10.14109005	     55.90831653	     54.19994403	      6.08369389	      5.42727594	     15.10597431	      8.16775656	     20.06545766	      3.24895981	     10.71129278	      3.39866537	     41.20282177	     41.20282177	     15.46222750	     15.46222750	     32.64631887	     32.64631887	    -11.41915785	     68.25102070	      9.82013002	     -5.62999411	     -0.24294245	     -4.99220322	     11.41915785	    -68.25102070	     -9.82013002	      2.01943950	      0.08515898	      1.89034916	      9.05593645	     21.07999622	     -0.20090080	      0.49575832	     -0.17302831	      3.50796306	     -9.05593645	    -21.07999622	      0.20090080	     -0.36302761	      0.15315043	      0.38936025	    -33.39199081	   -528.63420243	     99.66358532	    -10.20132365	      2.81196934	     11.76949987	     33.39199081	    528.63420243	    -99.66358532	     50.04313241	     -0.99457067	     11.21920158	     44.09868243	   -544.96854203	   -115.85239735	     16.97845462	     -1.55536308	     13.85520867	    -44.09868243	    544.96854203	    115.85239735	    -60.25527474	     -0.54340854	    -20.45573014	     85.29619679	     16.88858816	      0.00000000	      0.00000000	      0.00000000	      0.00000000	      0.00000000	      0.00000000	      0.00000000	      0.00000000	      0.00000000	      0.00000000	      0.00000001	      0.00000000
